PathFileType	4	(X/Y/Z)	36_2_17_p0_0-232_filt_butterworth.trc
DataRate	CameraRate	NumFrames	NumMarkers	Units	OrigDataRate	OrigDataStartFrame	OrigNumFrames
47.0	47.0	6	27	m	47.0	29	232
Frame#	Time	RHip			RKnee			RAnkle			RBigToe			RSmallToe			RHeel			LHip			LKnee			LAnkle			LBigToe			LSmallToe			LHeel			Neck			Head			Nose			RShoulder			RElbow			RWrist			RThumb			RIndex			RPinky			LShoulder			LElbow			LWrist			LThumb			LIndex			LPinky			
		X1	Y1	Z1	X2	Y2	Z2	X3	Y3	Z3	X4	Y4	Z4	X5	Y5	Z5	X6	Y6	Z6	X7	Y7	Z7	X8	Y8	Z8	X9	Y9	Z9	X10	Y10	Z10	X11	Y11	Z11	X12	Y12	Z12	X13	Y13	Z13	X14	Y14	Z14	X15	Y15	Z15	X16	Y16	Z16	X17	Y17	Z17	X18	Y18	Z18	X19	Y19	Z19	X20	Y20	Z20	X21	Y21	Z21	X22	Y22	Z22	X23	Y23	Z23	X24	Y24	Z24	X25	Y25	Z25	X26	Y26	Z26	X27	Y27	Z27	
29	0.6170212765957447	0.2860003119290767	0.5270929031463656	-0.08809068126003616	0.34725018368077876	0.6558160262624786	0.34745534899476427	0.38287851028300623	0.7235449283583977	0.7150116361939558	0.3288373294700999	0.5208867311196528	0.7487986371160729	0.3976623090432454	0.5487946355683564	0.7470523598349481	0.36473170190356563	0.8328974698208254	0.7894683410407601	0.09852675613431419	0.5413281173106758	-0.0821937827213223	0.11635904257637028	0.6357731424652049	0.3417271211478418	0.14226248277167267	0.709758545801975	0.7172249799468449	0.18445316357093264	0.5218136403636734	0.755533653944287	0.12403636905137028	0.5799856215467402	0.7791763854680149	0.15508244269947097	0.7337851004375958	0.7727493644130352	0.15899502806162163	0.5179244682402867	-0.5772262201008608	0.14727851678044557	0.4457336770438173	-0.8179620541200705	0.14852864585515257	0.3702078716810703	-0.6894123273020576	0.304157465307996	0.49141150675191553	-0.5046770087273054	0.3433425026425718	0.4990380799347381	-0.23261268463648394	0.27366424002881745	0.35216006362162033	-0.031042822456920315	0.18915703292560127	0.35040232806711036	0.054822280701792736	0.20048079313504646	0.37718919476268525	0.0889713195580857	0.2358013402475927	0.3880692333790071	0.09960843783550055	0.015151212773342042	0.48280279617841515	-0.48293128410883585	0.027724983476495366	0.4729871621561329	-0.227932103556578	0.15565850164992917	0.34082565129064724	-0.04046339117462439	0.2245207796292926	0.3653590601288124	0.039955311242600315	0.2300116216251301	0.3673237311638805	0.07546470518291666	0.19162983406936002	0.3429669449337587	0.07645236267255051
30	0.6382978723404256	0.28732920844237764	0.5306850603594335	-0.08606581838114664	0.34733666652728706	0.6516698539184093	0.3461775596862102	0.38287475672332916	0.7234625123046445	0.7149802627414783	0.3302874629501996	0.5145359753291423	0.7475239474133655	0.3986961076382145	0.5442821157772934	0.7448768176084339	0.3646219421733047	0.8328881911966263	0.7895862062294902	0.09969321590624511	0.5409924988834627	-0.08306126340525283	0.11645068865813354	0.6354225644425648	0.3417877176835784	0.1422394286766281	0.7098863479061044	0.7186462057843914	0.1835596017612735	0.5338991089494556	0.761950233951741	0.12353053021449867	0.5805807101033472	0.7789465360330283	0.15515473151896564	0.7349813273886925	0.7728986717536867	0.15845747268949206	0.5182609321818729	-0.5771363168836712	0.14721848213731784	0.44571904771857473	-0.8192615972530034	0.14875597453359707	0.3701894272369419	-0.6885370742699458	0.30420484803083014	0.491409386002409	-0.5031719639846424	0.34492815472881966	0.49917125011724417	-0.23330318186640198	0.2762275749048212	0.35669965679724763	-0.027066904673915503	0.1890651299444925	0.3590479433244397	0.055813506154432424	0.19894101415743184	0.3802219343025967	0.09014652851733576	0.23426938878409587	0.39828796987392157	0.10396097680975463	0.01510605119719373	0.482695740471151	-0.48311928354677247	0.027714601881870103	0.47277139829846015	-0.22791413986194362	0.15409048290751198	0.3460505029532467	-0.038444196053317836	0.21712675152208138	0.37160569774904495	0.04309558599148725	0.22362593444057433	0.378155586050158	0.07929680183746496	0.19208880168533715	0.35731532591785964	0.0803768177479213
31	0.6595744680851063	0.28830525647587335	0.5356388949876708	-0.0868040101635704	0.34733144142271216	0.6452068214348408	0.343385997067963	0.3828686157540849	0.7233342015201891	0.7149914099493055	0.33124157491406336	0.5100779341393757	0.7466688832145847	0.39881251524104205	0.543465053129347	0.7445525289602564	0.36450585385604034	0.8328732759909321	0.7897581658564723	0.10065484774967492	0.5437108457375114	-0.08232583717748498	0.11643177189121078	0.6353474019898805	0.34212539459425795	0.14224140170178615	0.7096303937315077	0.7179325424124366	0.18283263429811814	0.5428094707386802	0.7656905188388345	0.12332784710077985	0.58082196132958	0.7779065024521874	0.15522664774496484	0.735970387719352	0.7723202501989801	0.15844998704840882	0.5184771690943775	-0.5771235123104289	0.1471255725131568	0.44594443472621403	-0.8201228820902946	0.14890675402293557	0.37012525125580176	-0.6884027940199064	0.3042330215907946	0.4914154935467668	-0.5021779350977407	0.3459364133503807	0.4992969255224035	-0.2340940501124268	0.2790881094442213	0.36480683101152755	-0.023175996490553956	0.18876760905086346	0.37178608303796434	0.057389110555736464	0.1983095656748325	0.3906987958320143	0.09298005141007279	0.23425621663261803	0.41062558466436794	0.10937853484042574	0.015159889759598295	0.4827131296543899	-0.4830142302140646	0.027826831496140073	0.4726072154204451	-0.22776687244492705	0.1538892757895238	0.35296268358678184	-0.035955541986264036	0.21215774540282278	0.37295923813780824	0.04371851812310225	0.21777596988083114	0.38675387368300856	0.08196511717982868	0.19362343136410742	0.37150731132209575	0.08436104763226718
32	0.6808510638297872	0.2877394509086841	0.5397006085920257	-0.09143376829709017	0.3472210378080933	0.639992034083017	0.3404020640120591	0.38285646262292816	0.723204271098197	0.7150418856228108	0.33138396359369493	0.5091225129300749	0.7471421234116016	0.39859969036565357	0.5437587017216049	0.7447362901650019	0.3646479357295488	0.8328982181504772	0.7900049364581826	0.10125589013200369	0.5487304468111989	-0.08170189072082834	0.11621339735444655	0.6353677185233801	0.3423515174179608	0.14255409585741133	0.7095475107115288	0.7175647279150288	0.1819625720619063	0.5445123974611628	0.7667054117411328	0.12353101232866667	0.5806245563556449	0.7776320658549072	0.1552158924960525	0.7360526249127274	0.774074624186768	0.15855003540654786	0.5184205021502731	-0.5771336410507296	0.14701717912363088	0.44637197338539325	-0.8202771067157629	0.148881031893373	0.3700350845200559	-0.6885302379283524	0.30423268130948067	0.49140424739601196	-0.5020097708289888	0.3458820610865908	0.49917676866937566	-0.2348584649912714	0.2823970810143276	0.3755791405991367	-0.0195394735003619	0.18913052350902862	0.38110256605958115	0.05984790718575867	0.19918062382725188	0.40271932869680227	0.09746222701343625	0.2350800582968139	0.42099022570785827	0.11633057827810882	0.015399904121076401	0.48300156889986107	-0.48216264260772934	0.0276288960083203	0.4738773129728785	-0.22696546244867147	0.1534967128114038	0.36375418764322714	-0.031740144733381846	0.20978621216411483	0.3712539766505013	0.043834912118226786	0.2145206300244764	0.39092961877966237	0.083390955423823	0.19595511066218255	0.3818691668349057	0.08779217255112304
33	0.7021276595744681	0.28683945678620043	0.5442014066210842	-0.09640547004881432	0.34708522351227916	0.637236245957777	0.3381867053633515	0.38284558826910925	0.7231377633877274	0.7151123019757061	0.3312227934013963	0.5111910999775984	0.7487828401290164	0.398513856889974	0.5434764110152888	0.744574484886824	0.3652122607954249	0.8330196121139584	0.7899267387824205	0.10279146462372521	0.5498996398579407	-0.08312022951184471	0.11620305543050152	0.6352991899010454	0.3420408693850532	0.1429229115946123	0.7099782499134905	0.7190599026930731	0.1812074753892344	0.5421461675483964	0.7667779639393557	0.12393179592111907	0.5804266023271533	0.7789407012868127	0.15414776749173476	0.7372029409526983	0.7788356667882416	0.15858333322159046	0.5183492197025522	-0.5771359120373649	0.14724713303981085	0.4457022260855166	-0.8201447846423154	0.14877013051156035	0.3699768170390598	-0.6885774873675995	0.30422200291149404	0.49136761162518494	-0.5021605087650158	0.34553703483263554	0.4990250311747641	-0.23544373516607092	0.2854271931801844	0.3852917212759797	-0.015486003637187294	0.1903292803208414	0.38447993541468706	0.06586487685048983	0.19956808445175614	0.4088822493325177	0.103185029291539	0.23550321354534792	0.42665025393043904	0.1236978148304449	0.01557293414264453	0.4834970952748773	-0.4808458357259483	0.02654619586198585	0.477904126177331	-0.22569543402646275	0.1489377787384249	0.37893911606367825	-0.02314063738461016	0.21019493196427866	0.3694806458011847	0.04505212528091333	0.21629069097771922	0.3917279707712987	0.08491724574102591	0.1989451972896617	0.39270565014585485	0.09353413441328187
34	0.723404255319149	0.2871764280775186	0.5500669597496896	-0.09847268929660098	0.3474722215048477	0.6368408588224888	0.33716630317253427	0.38279790982104733	0.7231443690885797	0.7152302744688972	0.3311691542927407	0.5160695531403771	0.7498722698911262	0.3986595240832306	0.5442449021452398	0.7448008714074865	0.3658861982751328	0.8332371787662058	0.7891488997359606	0.10571409269710325	0.5457353282245994	-0.08556264930126867	0.11748215205541582	0.6353774000211481	0.3404913617987781	0.1424075880692006	0.710714496292886	0.7188119492269371	0.18062867313061926	0.5372817536644356	0.7656684298126576	0.12387671640449162	0.581080820518156	0.7804888784881648	0.15208407193313972	0.7421220654178102	0.782574633145522	0.15856946226892513	0.5183222826683338	-0.5771331381835973	0.14834803591945708	0.4422022413720186	-0.8200285928241615	0.14901801042676044	0.3701238018802793	-0.6885846928706372	0.30422045203088866	0.49134729108133746	-0.5022412443006341	0.3457891294836601	0.4999754749648228	-0.2355226828684553	0.2885779686399117	0.39302879784511874	-0.01104211939853547	0.19229689125893898	0.3867556911694423	0.07608982025624154	0.19864375317761668	0.4097225007362127	0.1097603892229058	0.23515354981363903	0.42857325004401964	0.12865109988586504	0.015113747235208003	0.4840264484040271	-0.47975435555110113	0.02488460981576444	0.4831570323914619	-0.2245914265607204	0.13908116407573176	0.39255087838258557	-0.010935227467175599	0.21122426228146898	0.3693518490529174	0.046899275910040866	0.22060179537324506	0.3902434364145775	0.08820663466457343	0.20081599065266797	0.40808354789888507	0.10332220978656655
